<?xml version="1.0" encoding="UTF-8" standalone="no" ?>
<!DOCTYPE svg PUBLIC "-//W3C//DTD SVG 1.1//EN" "http://www.w3.org/Graphics/SVG/1.1/DTD/svg11.dtd">
<svg xmlns="http://www.w3.org/2000/svg" xmlns:xlink="http://www.w3.org/1999/xlink" version="1.1" width="500" height="500" viewBox="0 0 500 500" xml:space="preserve">
<desc>Created with Fabric.js 3.6.3</desc>
<defs>
</defs>
<g transform="matrix(0.9926546770915378 -0.12098219723701084 0.09694448148845158 0.9955843320208231 250.28441864751932 238.5609199724325)" style=""  ><path fill="#d9d9d9" opacity="1" d="M-18.45 28.01Q-21.96 28.01-23.99 26.81L-23.99 26.81Q-26.83 25.16-26.83 21.73L-26.83 21.73Q-26.83 19.46-25.76 16.82L-25.76 16.82Q-24.19 18.51-22.87 19.19Q-21.55 19.87-20.06 19.87L-20.06 19.87Q-15.85 19.87-13.58 14.67L-13.58 14.67Q-12.63 12.57-12.18 9.90Q-11.72 7.24-11.72 4.68L-11.72 4.68Q-11.72-0.19-13.42-2.92L-13.42-2.92Q-15.44-6.10-19.73-6.10L-19.73-6.10Q-22.00-6.10-23.61-5.81L-23.61-5.81L-30.55 26.56L-42.73 26.56L-31.25-27.23L-18.74-28.88L-22.71-10.14L-22.21-10.14Q-19.78-10.14-17.55-11.34Q-15.32-12.54-13.62-14.60L-13.62-14.60Q-11.97-16.62-11.00-19.06Q-10.03-21.49-10.03-23.85L-10.03-23.85Q-10.03-25.66-10.67-27.29Q-11.31-28.93-12.59-30.16L-12.59-30.16Q-15.52-32.97-21.18-32.97L-21.18-32.97Q-26.38-32.97-31.05-30.74L-31.05-30.74Q-36.25-28.22-39.01-23.93L-39.01-23.93Q-42.32-18.93-42.32-12.41L-42.32-12.41Q-42.32-9.69-41.70-8.20L-41.70-8.20Q-41.53-7.66-41.28-7.25L-41.28-7.25Q-41.12-6.96-41.12-6.67L-41.12-6.67Q-45.62-6.67-47.89-8.47Q-50.16-10.26-50.16-14.43L-50.16-14.43Q-50.16-20.21-45.74-25.46L-45.74-25.46Q-43.68-27.93-40.81-30.02Q-37.94-32.10-34.51-33.63L-34.51-33.63Q-27.29-36.85-19.49-36.85L-19.49-36.85Q-10.78-36.85-5.82-32.72L-5.82-32.72Q-3.67-30.91-2.58-28.49Q-1.49-26.08-1.49-23.39L-1.49-23.39Q-1.49-19.39-3.63-15.96L-3.63-15.96Q-6.03-12.16-9.95-9.98L-9.95-9.98Q-4.87-9.07-2.23-5.06L-2.23-5.06Q0.04-1.55 0.04 3.65L0.04 3.65Q0.04 5.79-0.37 8.40Q-0.78 11.00-1.61 13.56L-1.61 13.56Q-3.63 19.91-7.35 23.51L-7.35 23.51Q-11.97 28.01-18.45 28.01L-18.45 28.01Z"/><path fill="#d9d9d9" opacity="1" d="M23.70 28.09Q19.65 28.09 16.39 27.04Q13.13 25.98 10.78 24.00L10.78 24.00Q8.38 22.02 7.12 19.29Q5.86 16.57 5.86 13.27L5.86 13.27Q5.86 10.50 6.75 8.04Q7.64 5.59 9.25 3.77L9.25 3.77Q10.86 1.96 13.00 0.94Q15.15-0.07 17.55-0.07L17.55-0.07Q20.52-0.07 22.54 1.42Q24.56 2.90 25.06 5.51L25.06 5.51Q20.64 5.51 18.04 7.86L18.04 7.86Q16.80 8.97 16.12 10.58Q15.44 12.19 15.44 14.13L15.44 14.13Q15.44 17.85 17.61 20.02Q19.78 22.18 23.45 22.18L23.45 22.18Q25.64 22.18 27.54 21.38Q29.44 20.57 30.84 19.17L30.84 19.17Q32.24 17.77 33.01 15.81Q33.77 13.85 33.77 11.62L33.77 11.62Q33.77 7.49 30.96 3.03L30.96 3.03Q29.85 1.29 28.51-0.38Q27.16-2.05 24.77-4.82L24.77-4.82Q22.62-7.29 21.18-9.11Q19.73-10.93 18.58-12.82L18.58-12.82Q15.77-17.41 15.77-21.82L15.77-21.82Q15.77-25.13 17.17-27.96Q18.58-30.78 21.18-32.89L21.18-32.89Q23.78-34.99 27.25-36.15Q30.72-37.31 34.72-37.31L34.72-37.31Q41.53-37.31 45.66-34.09L45.66-34.09Q47.64-32.52 48.69-30.33Q49.75-28.14 49.75-25.46L49.75-25.46Q49.75-21.95 47.97-19.72L47.97-19.72Q47.15-18.65 45.93-18.07Q44.71-17.49 43.35-17.49L43.35-17.49Q40.17-17.49 38.19-20.13L38.19-20.13Q39.80-21.29 40.73-23.21Q41.66-25.13 41.66-27.32L41.66-27.32Q41.66-30.04 40.05-31.63Q38.44-33.22 35.63-33.22L35.63-33.22Q33.94-33.22 32.51-32.60Q31.09-31.98 30.10-30.82L30.10-30.82Q29.06-29.67 28.51-28.10Q27.95-26.53 27.95-24.67L27.95-24.67Q27.95-22.03 29.19-19.60Q30.43-17.16 32.74-14.52L32.74-14.52Q34.80-12.08 37.20-9.69L37.20-9.69Q42.77-3.91 45.08 1.58L45.08 1.58Q46.44 4.85 46.44 8.77L46.44 8.77Q46.44 12.90 44.75 16.43Q43.06 19.96 39.92 22.56L39.92 22.56Q36.78 25.20 32.61 26.64Q28.44 28.09 23.70 28.09L23.70 28.09Z"/></g><g transform="matrix(1.3689365896732215 -0.13576497226424972 0.07761780218965686 0.95715026916638 262.04844464693963 278.17933419442073)"  >
<path style="stroke: none; stroke-width: 0; stroke-dasharray: none; stroke-linecap: butt; stroke-dashoffset: 0; stroke-linejoin: miter; stroke-miterlimit: 4; fill: rgb(217,217,217); fill-rule: nonzero; opacity: 1;"  transform=" translate(-49.9821566566983, -49.7)" d="M 92.1 53.1 c -25.6 -11.6 -58.6 -11.6 -84.2 0 c -0.5 0.2 -0.7 0.8 -0.5 1.3 c 0.2 0.5 0.8 0.7 1.3 0.5 c 25.1 -11.4 57.5 -11.4 82.5 0 c 0.1 0.1 0.3 0.1 0.4 0.1 c 0.4 0 0.7 -0.2 0.9 -0.6 C 92.8 53.9 92.6 53.3 92.1 53.1 z" stroke-linecap="round" />
</g>
</svg>