<?xml version="1.0" encoding="UTF-8" standalone="no" ?>
<!DOCTYPE svg PUBLIC "-//W3C//DTD SVG 1.1//EN" "http://www.w3.org/Graphics/SVG/1.1/DTD/svg11.dtd">
<svg xmlns="http://www.w3.org/2000/svg" xmlns:xlink="http://www.w3.org/1999/xlink" version="1.1" width="500" height="500" viewBox="0 0 500 500" xml:space="preserve">
<desc>Created with Fabric.js 3.6.3</desc>
<defs>
</defs>
<g transform="matrix(0.9926546770915378 -0.1209821972370108 0.09694448148845172 0.9955843320208231 250.28441864751937 250.21718570623125)" style=""  ><path fill="#d9d9d9" opacity="1" d="M-55.86 84.78Q-66.49 84.78-72.61 81.15L-72.61 81.15Q-81.23 76.15-81.23 65.78L-81.23 65.78Q-81.23 58.91-77.98 50.91L-77.98 50.91Q-73.24 56.03-69.24 58.10Q-65.24 60.16-60.74 60.16L-60.74 60.16Q-47.99 60.16-41.12 44.41L-41.12 44.41Q-38.24 38.04-36.87 29.98Q-35.49 21.92-35.49 14.17L-35.49 14.17Q-35.49-0.58-40.62-8.83L-40.62-8.83Q-46.74-18.45-59.74-18.45L-59.74-18.45Q-66.61-18.45-71.49-17.58L-71.49-17.58L-92.48 80.40L-129.35 80.40L-94.61-82.44L-56.74-87.44L-68.74-30.70L-67.24-30.70Q-59.86-30.70-53.11-34.32Q-46.37-37.95-41.24-44.20L-41.24-44.20Q-36.24-50.32-33.31-57.69Q-30.37-65.07-30.37-72.19L-30.37-72.19Q-30.37-77.69-32.31-82.63Q-34.24-87.56-38.12-91.31L-38.12-91.31Q-46.99-99.81-64.11-99.81L-64.11-99.81Q-79.86-99.81-93.98-93.06L-93.98-93.06Q-109.73-85.44-118.10-72.44L-118.10-72.44Q-128.10-57.32-128.10-37.57L-128.10-37.57Q-128.10-29.32-126.23-24.83L-126.23-24.83Q-125.73-23.20-124.98-21.95L-124.98-21.95Q-124.48-21.08-124.48-20.20L-124.48-20.20Q-138.10-20.20-144.97-25.64Q-151.85-31.07-151.85-43.70L-151.85-43.70Q-151.85-61.19-138.47-77.07L-138.47-77.07Q-132.22-84.56-123.54-90.87Q-114.85-97.19-104.48-101.81L-104.48-101.81Q-82.61-111.56-58.99-111.56L-58.99-111.56Q-32.62-111.56-17.62-99.06L-17.62-99.06Q-11.12-93.56-7.81-86.25Q-4.50-78.94-4.50-70.82L-4.50-70.82Q-4.50-58.69-11.00-48.32L-11.00-48.32Q-18.25-36.82-30.12-30.20L-30.12-30.20Q-14.75-27.45-6.75-15.33L-6.75-15.33Q0.12-4.70 0.12 11.04L0.12 11.04Q0.12 17.54-1.12 25.41Q-2.37 33.29-4.87 41.04L-4.87 41.04Q-11.00 60.28-22.25 71.16L-22.25 71.16Q-36.24 84.78-55.86 84.78L-55.86 84.78Z"/><path fill="#d9d9d9" opacity="1" d="M71.74 85.03Q59.49 85.03 49.62 81.84Q39.74 78.65 32.62 72.66L32.62 72.66Q25.37 66.66 21.56 58.41Q17.75 50.16 17.75 40.16L17.75 40.16Q17.75 31.79 20.43 24.35Q23.12 16.92 27.99 11.42L27.99 11.42Q32.87 5.92 39.37 2.86Q45.87-0.21 53.11-0.21L53.11-0.21Q62.11-0.21 68.24 4.29Q74.36 8.79 75.86 16.67L75.86 16.67Q62.49 16.67 54.61 23.79L54.61 23.79Q50.87 27.16 48.80 32.04Q46.74 36.91 46.74 42.79L46.74 42.79Q46.74 54.03 53.30 60.60Q59.86 67.16 70.99 67.16L70.99 67.16Q77.61 67.16 83.36 64.72Q89.11 62.28 93.36 58.03L93.36 58.03Q97.61 53.78 99.92 47.85Q102.23 41.91 102.23 35.16L102.23 35.16Q102.23 22.67 93.73 9.17L93.73 9.17Q90.36 3.92 86.30-1.14Q82.23-6.20 74.99-14.58L74.99-14.58Q68.49-22.08 64.11-27.57Q59.74-33.07 56.24-38.82L56.24-38.82Q47.74-52.69 47.74-66.07L47.74-66.07Q47.74-76.07 51.99-84.63Q56.24-93.19 64.11-99.56L64.11-99.56Q71.99-105.93 82.48-109.43Q92.98-112.93 105.10-112.93L105.10-112.93Q125.73-112.93 138.22-103.19L138.22-103.19Q144.22-98.44 147.41-91.81Q150.60-85.19 150.60-77.07L150.60-77.07Q150.60-66.44 145.22-59.69L145.22-59.69Q142.72-56.44 139.04-54.69Q135.35-52.94 131.22-52.94L131.22-52.94Q121.60-52.94 115.60-60.94L115.60-60.94Q120.48-64.44 123.29-70.25Q126.10-76.07 126.10-82.69L126.10-82.69Q126.10-90.94 121.23-95.75Q116.35-100.56 107.85-100.56L107.85-100.56Q102.73-100.56 98.42-98.69Q94.11-96.81 91.11-93.31L91.11-93.31Q87.98-89.81 86.30-85.06Q84.61-80.31 84.61-74.69L84.61-74.69Q84.61-66.69 88.36-59.32Q92.11-51.95 99.11-43.95L99.11-43.95Q105.35-36.57 112.60-29.32L112.60-29.32Q129.47-11.83 136.47 4.79L136.47 4.79Q140.60 14.67 140.60 26.54L140.60 26.54Q140.60 39.04 135.47 49.72Q130.35 60.41 120.85 68.28L120.85 68.28Q111.35 76.28 98.73 80.65Q86.11 85.03 71.74 85.03L71.74 85.03Z"/></g><g transform="matrix(4.144272592307477 -0.4110103110651924 0.23497752395275162 2.8976445345600954 287.05280980716816 371.0450021764364)"  >
<path style="stroke: none; stroke-width: 0; stroke-dasharray: none; stroke-linecap: butt; stroke-dashoffset: 0; stroke-linejoin: miter; stroke-miterlimit: 4; fill: rgb(217,217,217); fill-rule: nonzero; opacity: 1;"  transform=" translate(-49.9821566566983, -49.7)" d="M 92.1 53.1 c -25.6 -11.6 -58.6 -11.6 -84.2 0 c -0.5 0.2 -0.7 0.8 -0.5 1.3 c 0.2 0.5 0.8 0.7 1.3 0.5 c 25.1 -11.4 57.5 -11.4 82.5 0 c 0.1 0.1 0.3 0.1 0.4 0.1 c 0.4 0 0.7 -0.2 0.9 -0.6 C 92.8 53.9 92.6 53.3 92.1 53.1 z" stroke-linecap="round" />
</g>
</svg>