<?xml version="1.0" encoding="UTF-8" standalone="no" ?>
<!DOCTYPE svg PUBLIC "-//W3C//DTD SVG 1.1//EN" "http://www.w3.org/Graphics/SVG/1.1/DTD/svg11.dtd">
<svg xmlns="http://www.w3.org/2000/svg" xmlns:xlink="http://www.w3.org/1999/xlink" version="1.1" width="500" height="500" viewBox="0 0 500 500" xml:space="preserve">
<desc>Created with Fabric.js 3.6.3</desc>
<defs>
</defs>
<g transform="matrix(0.9926546770915378 -0.1209821972370108 0.09694448148845172 0.9955843320208231 233.73556650280779 250.2171857062313)" style=""  ><path fill="#d9d9d9" opacity="1" d="M-147.75 27.08Q-151.15 27.08-153.10 25.92L-153.10 25.92Q-155.86 24.32-155.86 21.01L-155.86 21.01Q-155.86 18.82-154.82 16.26L-154.82 16.26Q-153.30 17.90-152.02 18.56Q-150.75 19.21-149.31 19.21L-149.31 19.21Q-145.24 19.21-143.04 14.18L-143.04 14.18Q-142.12 12.15-141.69 9.57Q-141.25 7.00-141.25 4.52L-141.25 4.52Q-141.25-0.19-142.88-2.82L-142.88-2.82Q-144.84-5.89-148.99-5.89L-148.99-5.89Q-151.19-5.89-152.74-5.61L-152.74-5.61L-159.45 25.68L-171.22 25.68L-160.13-26.33L-148.03-27.93L-151.86-9.81L-151.39-9.81Q-149.03-9.81-146.87-10.96Q-144.72-12.12-143.08-14.12L-143.08-14.12Q-141.49-16.07-140.55-18.43Q-139.61-20.78-139.61-23.06L-139.61-23.06Q-139.61-24.81-140.23-26.39Q-140.85-27.97-142.08-29.17L-142.08-29.17Q-144.92-31.88-150.39-31.88L-150.39-31.88Q-155.42-31.88-159.93-29.72L-159.93-29.72Q-164.96-27.29-167.63-23.14L-167.63-23.14Q-170.82-18.31-170.82-12.00L-170.82-12.00Q-170.82-9.37-170.23-7.93L-170.23-7.93Q-170.07-7.41-169.83-7.01L-169.83-7.01Q-169.67-6.73-169.67-6.45L-169.67-6.45Q-174.02-6.45-176.21-8.19Q-178.41-9.93-178.41-13.96L-178.41-13.96Q-178.41-19.55-174.14-24.61L-174.14-24.61Q-172.14-27.01-169.37-29.03Q-166.59-31.04-163.28-32.52L-163.28-32.52Q-156.29-35.63-148.75-35.63L-148.75-35.63Q-140.33-35.63-135.54-31.64L-135.54-31.64Q-133.46-29.88-132.40-27.55Q-131.35-25.21-131.35-22.62L-131.35-22.62Q-131.35-18.75-133.42-15.43L-133.42-15.43Q-135.74-11.76-139.53-9.65L-139.53-9.65Q-134.62-8.77-132.07-4.90L-132.07-4.90Q-129.87-1.50-129.87 3.53L-129.87 3.53Q-129.87 5.60-130.27 8.12Q-130.67 10.63-131.47 13.11L-131.47 13.11Q-133.42 19.25-137.02 22.73L-137.02 22.73Q-141.49 27.08-147.75 27.08L-147.75 27.08Z"/><path fill="#d9d9d9" opacity="1" d="M-118.89 26.16Q-122.80 26.16-125.08 23.84L-125.08 23.84Q-127.63 21.29-127.63 16.38L-127.63 16.38Q-127.63 14.07-127.00 11.03L-127.00 11.03L-121.45-15.19L-109.67-15.19L-115.54 12.59Q-115.78 13.83-115.78 14.90L-115.78 14.90Q-115.78 18.26-113.34 18.26L-113.34 18.26Q-111.11 18.26-109.31 16.22L-109.31 16.22Q-107.88 14.50-106.80 11.03L-106.80 11.03L-101.25-15.19L-89.47-15.19L-95.34 12.59Q-95.70 13.79-95.70 15.22L-95.70 15.22Q-95.70 16.90-94.90 17.58Q-94.10 18.26-92.35 18.26L-92.35 18.26Q-90.07 18.26-88.28 16.22L-88.28 16.22Q-86.68 14.42-85.72 11.03L-85.72 11.03L-82.29 11.03Q-84.48 17.26-87.60 20.89L-87.60 20.89Q-90.23 23.88-93.55 25.20L-93.55 25.20Q-95.98 26.16-98.69 26.16L-98.69 26.16Q-102.21 26.16-104.28 24.20Q-106.36 22.25-106.80 18.42L-106.80 18.42Q-109.59 22.89-113.10 24.80L-113.10 24.80Q-115.62 26.16-118.89 26.16L-118.89 26.16Z"/><path fill="#d9d9d9" opacity="1" d="M-74.03 26.16Q-80.05 26.16-83.33 23.13L-83.33 23.13Q-86.80 19.89-86.80 13.19L-86.80 13.19Q-86.80 10.67-86.30 7.60Q-85.80 4.52-84.80 1.45L-84.80 1.45Q-83.69-1.98-81.95-5.06Q-80.21-8.13-77.90-10.48L-77.90-10.48Q-72.55-15.91-64.73-15.91L-64.73-15.91Q-59.74-15.91-57.46-13.52L-57.46-13.52Q-55.70-11.64-55.70-8.09L-55.70-8.09Q-55.70-4.62-57.22-1.56Q-58.74 1.49-61.41 3.85L-61.41 3.85Q-64.09 6.16-67.48 7.54Q-70.87 8.92-74.51 9.16L-74.51 9.16Q-74.70 11.23-74.70 12.43L-74.70 12.43Q-74.70 16.42-73.19 17.94L-73.19 17.94Q-71.87 19.29-68.80 19.29L-68.80 19.29Q-64.37 19.29-60.69 16.90L-60.69 16.90Q-59.14 15.90-57.70 14.52Q-56.26 13.15-54.35 11.03L-54.35 11.03L-51.55 11.03Q-55.42 17.58-60.45 21.45L-60.45 21.45Q-66.64 26.16-74.03 26.16L-74.03 26.16ZM-73.87 5.24Q-71.59 5.08-69.44 3.93Q-67.28 2.77-65.60 0.89L-65.60 0.89Q-63.93-1.02-62.97-3.40Q-62.01-5.77-62.01-8.25L-62.01-8.25Q-62.01-9.89-62.47-10.74Q-62.93-11.60-64.05-11.60L-64.05-11.60Q-65.52-11.60-67.02-10.16Q-68.52-8.73-69.91-6.21L-69.91-6.21Q-71.19-3.86-72.23-0.86Q-73.27 2.13-73.87 5.24L-73.87 5.24Z"/><path fill="#d9d9d9" opacity="1" d="M-24.85 26.16Q-29.92 26.16-32.35 23.29L-32.35 23.29Q-34.47 20.81-34.47 16.94L-34.47 16.94Q-34.47 15.10-34.01 12.67Q-33.55 10.23-32.63 6.40L-32.63 6.40Q-31.71 2.49-31.26 0.15Q-30.80-2.18-30.80-3.90L-30.80-3.90Q-30.80-8.09-33.75-8.09L-33.75-8.09Q-35.83-8.09-37.58-5.89L-37.58-5.89Q-39.06-4.02-40.14-0.54L-40.14-0.54L-45.68 25.68L-57.46 25.68L-48.80-15.19L-37.02-15.19L-37.90-10.96Q-35.51-13.64-32.75-14.72L-32.75-14.72Q-30.72-15.51-28.36-15.51L-28.36-15.51Q-24.21-15.51-21.81-13.36L-21.81-13.36Q-19.26-11.00-19.26-6.29L-19.26-6.29Q-19.26-3.46-20.30 1.09L-20.30 1.09Q-20.58 2.41-21.22 5.04L-21.22 5.04Q-22.37 9.47-22.89 12.11L-22.89 12.11Q-23.21 13.79-23.21 14.82L-23.21 14.82Q-23.21 16.46-22.47 17.36Q-21.73 18.26-19.94 18.26L-19.94 18.26Q-17.50 18.26-15.83 16.26L-15.83 16.26Q-14.55 14.74-13.07 11.03L-13.07 11.03L-9.64 11.03Q-12.67 20.01-17.30 23.61L-17.30 23.61Q-20.58 26.16-24.85 26.16L-24.85 26.16Z"/><path fill="#d9d9d9" opacity="1" d="M6.93 27.16Q3.01 27.16-0.14 26.14Q-3.29 25.12-5.57 23.21L-5.57 23.21Q-7.88 21.29-9.10 18.66Q-10.32 16.02-10.32 12.83L-10.32 12.83Q-10.32 10.15-9.46 7.78Q-8.60 5.40-7.05 3.65L-7.05 3.65Q-5.49 1.89-3.41 0.91Q-1.34-0.07 0.98-0.07L0.98-0.07Q3.85-0.07 5.81 1.37Q7.76 2.81 8.24 5.32L8.24 5.32Q3.97 5.32 1.46 7.60L1.46 7.60Q0.26 8.68-0.40 10.23Q-1.06 11.79-1.06 13.67L-1.06 13.67Q-1.06 17.26 1.04 19.35Q3.13 21.45 6.69 21.45L6.69 21.45Q8.80 21.45 10.64 20.67Q12.47 19.89 13.83 18.54L13.83 18.54Q15.19 17.18 15.93 15.28Q16.67 13.39 16.67 11.23L16.67 11.23Q16.67 7.24 13.95 2.93L13.95 2.93Q12.87 1.25 11.58-0.36Q10.28-1.98 7.96-4.66L7.96-4.66Q5.89-7.05 4.49-8.81Q3.09-10.56 1.98-12.40L1.98-12.40Q-0.74-16.83-0.74-21.10L-0.74-21.10Q-0.74-24.30 0.62-27.03Q1.98-29.76 4.49-31.80L4.49-31.80Q7.01-33.84 10.36-34.95Q13.71-36.07 17.58-36.07L17.58-36.07Q24.17-36.07 28.16-32.96L28.16-32.96Q30.08-31.44 31.10-29.32Q32.11-27.21 32.11-24.61L32.11-24.61Q32.11-21.22 30.40-19.07L30.40-19.07Q29.60-18.03 28.42-17.47Q27.24-16.91 25.93-16.91L25.93-16.91Q22.85-16.91 20.94-19.47L20.94-19.47Q22.49-20.58 23.39-22.44Q24.29-24.30 24.29-26.41L24.29-26.41Q24.29-29.05 22.73-30.58Q21.18-32.12 18.46-32.12L18.46-32.12Q16.83-32.12 15.45-31.52Q14.07-30.92 13.11-29.80L13.11-29.80Q12.11-28.69 11.58-27.17Q11.04-25.65 11.04-23.86L11.04-23.86Q11.04-21.30 12.23-18.95Q13.43-16.59 15.67-14.04L15.67-14.04Q17.66-11.68 19.98-9.37L19.98-9.37Q25.37-3.78 27.60 1.53L27.60 1.53Q28.92 4.68 28.92 8.48L28.92 8.48Q28.92 12.47 27.28 15.88Q25.65 19.29 22.61 21.81L22.61 21.81Q19.58 24.36 15.55 25.76Q11.52 27.16 6.93 27.16L6.93 27.16Z"/><path fill="#d9d9d9" opacity="1" d="M43.33 26.16Q38.66 26.16 35.79 23.25L35.79 23.25Q32.43 19.81 32.43 13.03L32.43 13.03Q32.43 10.15 33.01 6.96Q33.59 3.77 34.71 0.65L34.71 0.65Q37.26-6.37 41.69-10.68L41.69-10.68Q46.80-15.59 53.47-15.59L53.47-15.59Q56.78-15.59 58.44-14.46Q60.10-13.32 60.10-11.44L60.10-11.44L60.10-10.84L60.97-15.19L72.75-15.19L66.88 12.59Q66.52 13.79 66.52 15.22L66.52 15.22Q66.52 18.74 69.87 18.74L69.87 18.74Q72.11 18.74 73.95 16.46L73.95 16.46Q75.50 14.54 76.50 11.03L76.50 11.03L79.93 11.03Q77.74 17.26 74.62 20.89L74.62 20.89Q71.99 23.88 68.68 25.20L68.68 25.20Q66.24 26.16 63.53 26.16L63.53 26.16Q60.06 26.16 58.00 24.26Q55.94 22.37 55.50 18.66L55.50 18.66Q53.19 21.93 50.63 23.76L50.63 23.76Q47.36 26.16 43.33 26.16L43.33 26.16ZM48.64 18.26Q49.56 18.26 50.57 17.78Q51.59 17.30 52.55 16.42L52.55 16.42Q54.71 14.34 55.42 11.03L55.42 11.03L59.34-7.41Q59.34-7.81 59.16-8.35Q58.98-8.89 58.66-9.37L58.66-9.37Q57.70-10.52 55.98-10.52L55.98-10.52Q54.35-10.52 52.81-9.45Q51.27-8.37 49.92-6.45L49.92-6.45Q47.52-2.98 45.96 2.61L45.96 2.61Q45.25 5.08 44.89 7.50Q44.53 9.91 44.53 11.87L44.53 11.87Q44.53 15.94 46.04 17.38L46.04 17.38Q46.56 17.94 47.20 18.10Q47.84 18.26 48.64 18.26L48.64 18.26Z"/><path fill="#d9d9d9" opacity="1" d="M87.36 26.16Q81.77 26.16 78.86 23.43Q75.94 20.69 75.94 15.70L75.94 15.70Q75.94 13.03 76.50 11.03L76.50 11.03L85.24-29.92L97.34-31.56L93.43-13.16Q95.78-14.60 97.42-15.07L97.42-15.07Q98.61-15.43 100.13-15.43L100.13-15.43Q104.72-15.43 107.12-12.36L107.12-12.36Q109.79-8.89 109.79-1.46L109.79-1.46Q109.79 1.09 109.31 4.07Q108.83 7.04 107.84 9.95L107.84 9.95Q105.44 16.94 100.89 21.13L100.89 21.13Q95.38 26.16 87.36 26.16L87.36 26.16ZM91.95 18.26Q94.42 18.26 96.82 14.94L96.82 14.94Q98.89 11.99 100.25 7.20L100.25 7.20Q101.53 2.49 101.53-1.78L101.53-1.78Q101.53-5.10 100.49-7.21L100.49-7.21Q99.93-8.37 99.09-9.01Q98.26-9.65 97.18-9.65L97.18-9.65Q95.78-9.65 94.66-9.37L94.66-9.37Q92.99-8.93 92.35-8.17L92.35-8.17L87.88 12.59Q87.64 13.59 87.64 14.46L87.64 14.46Q87.64 18.26 91.95 18.26L91.95 18.26Z"/><path fill="#d9d9d9" opacity="1" d="M124.72 26.00Q118.65 26.00 115.34 23.05L115.34 23.05Q111.63 19.77 111.63 13.11L111.63 13.11Q111.63 10.59 112.15 7.54Q112.67 4.49 113.74 1.37L113.74 1.37Q116.22-6.05 120.81-10.48L120.81-10.48Q126.36-15.91 134.02-15.91L134.02-15.91Q144.52-15.91 144.52-2.86L144.52-2.86L144.52-2.78Q144.76-2.70 144.92-2.70L144.92-2.70L145.40-2.70Q148.11-2.70 151.82-4.22L151.82-4.22Q155.10-5.57 158.01-7.61L158.01-7.61L158.73-5.37Q156.33-2.86 152.56-1.10Q148.79 0.65 144.24 1.41L144.24 1.41Q143.76 6.96 142.08 11.53Q140.41 16.10 137.77 19.37L137.77 19.37Q135.18 22.57 131.83 24.28Q128.47 26.00 124.72 26.00L124.72 26.00ZM127.99 18.66Q129.43 18.66 130.93 17.36Q132.42 16.06 133.74 13.75L133.74 13.75Q135.06 11.43 136.02 8.32Q136.98 5.20 137.45 1.65L137.45 1.65Q136.26 1.33 135.76 0.45Q135.26-0.42 135.26-1.78L135.26-1.78Q135.26-3.46 135.94-4.58Q136.62-5.69 137.81-6.21L137.81-6.21Q137.65-8.81 136.98-9.93L136.98-9.93Q136.62-10.48 136.08-10.72Q135.54-10.96 134.70-10.96L134.70-10.96Q131.95-10.96 129.31-6.81L129.31-6.81Q126.88-3.06 125.32 2.45L125.32 2.45Q123.80 7.84 123.80 12.03L123.80 12.03Q123.80 14.07 124.02 15.34Q124.24 16.62 124.76 17.34L124.76 17.34Q125.24 18.06 126.00 18.36Q126.76 18.66 127.99 18.66L127.99 18.66Z"/><path fill="#d9d9d9" opacity="1" d="M145.56 25.68L154.22-15.19L165.99-15.19L164.96-10.12Q167.75-12.60 169.51-13.64L169.51-13.64Q172.22-15.19 174.82-15.19L174.82-15.19Q177.45-15.19 179.05-13.32L179.05-13.32Q179.77-12.48 180.13-11.38Q180.48-10.28 180.48-9.05L180.48-9.05Q180.48-7.93 180.13-6.89Q179.77-5.85 179.05-5.02L179.05-5.02Q178.25-4.14 177.11-3.62Q175.97-3.10 174.58-3.10L174.58-3.10Q173.50-3.10 172.86-3.46Q172.22-3.82 171.86-4.50L171.86-4.50Q171.54-5.17 171.42-5.81L171.42-5.81Q171.06-7.53 170.71-8.09L170.71-8.09Q170.43-8.49 169.83-8.49L169.83-8.49Q168.11-8.49 166.91-7.77Q165.72-7.05 163.88-5.37L163.88-5.37L157.33 25.68L145.56 25.68Z"/></g><g transform="matrix(3.5685677907718016 -0.3539144988833119 0.20233544122786928 2.4951160245421216 311.8065111210864 295.1632053041151)"  >
<path style="stroke: none; stroke-width: 0; stroke-dasharray: none; stroke-linecap: butt; stroke-dashoffset: 0; stroke-linejoin: miter; stroke-miterlimit: 4; fill: rgb(217,217,217); fill-rule: nonzero; opacity: 1;"  transform=" translate(-49.9821566566983, -49.7)" d="M 92.1 53.1 c -25.6 -11.6 -58.6 -11.6 -84.2 0 c -0.5 0.2 -0.7 0.8 -0.5 1.3 c 0.2 0.5 0.8 0.7 1.3 0.5 c 25.1 -11.4 57.5 -11.4 82.5 0 c 0.1 0.1 0.3 0.1 0.4 0.1 c 0.4 0 0.7 -0.2 0.9 -0.6 C 92.8 53.9 92.6 53.3 92.1 53.1 z" stroke-linecap="round" />
</g>
</svg>