<?xml version="1.0" encoding="UTF-8" standalone="no" ?>
<!DOCTYPE svg PUBLIC "-//W3C//DTD SVG 1.1//EN" "http://www.w3.org/Graphics/SVG/1.1/DTD/svg11.dtd">
<svg xmlns="http://www.w3.org/2000/svg" xmlns:xlink="http://www.w3.org/1999/xlink" version="1.1" width="500" height="500" viewBox="0 0 500 500" xml:space="preserve">
<desc>Created with Fabric.js 3.6.3</desc>
<defs>
</defs>
<g transform="matrix(0.9939819040983379 -0.10954439431135989 0.10954439431135989 0.9939819040983379 240.9945144689142 246.555910395406)" style=""  ><path fill="#000000" opacity="1" d="M-111.15 20.37Q-113.71 20.37-115.18 19.50L-115.18 19.50Q-117.25 18.30-117.25 15.81L-117.25 15.81Q-117.25 14.15-116.47 12.23L-116.47 12.23Q-115.33 13.46-114.37 13.96Q-113.41 14.45-112.32 14.45L-112.32 14.45Q-109.26 14.45-107.61 10.67L-107.61 10.67Q-106.92 9.14-106.59 7.20Q-106.26 5.27-106.26 3.40L-106.26 3.40Q-106.26-0.14-107.49-2.12L-107.49-2.12Q-108.96-4.43-112.08-4.43L-112.08-4.43Q-113.74-4.43-114.91-4.22L-114.91-4.22L-119.95 19.32L-128.81 19.32L-120.46-19.81L-111.36-21.01L-114.25-7.38L-113.89-7.38Q-112.11-7.38-110.49-8.25Q-108.87-9.12-107.64-10.62L-107.64-10.62Q-106.44-12.09-105.73-13.86Q-105.03-15.63-105.03-17.35L-105.03-17.35Q-105.03-18.67-105.49-19.85Q-105.96-21.04-106.89-21.94L-106.89-21.94Q-109.02-23.98-113.14-23.98L-113.14-23.98Q-116.92-23.98-120.31-22.36L-120.31-22.36Q-124.10-20.53-126.11-17.41L-126.11-17.41Q-128.51-13.77-128.51-9.03L-128.51-9.03Q-128.51-7.05-128.06-5.97L-128.06-5.97Q-127.94-5.57-127.76-5.27L-127.76-5.27Q-127.64-5.06-127.64-4.85L-127.64-4.85Q-130.91-4.85-132.56-6.16Q-134.22-7.47-134.22-10.50L-134.22-10.50Q-134.22-14.70-131.00-18.52L-131.00-18.52Q-129.50-20.32-127.41-21.84Q-125.33-23.35-122.83-24.46L-122.83-24.46Q-117.58-26.81-111.90-26.81L-111.90-26.81Q-105.57-26.81-101.96-23.80L-101.96-23.80Q-100.40-22.48-99.61-20.72Q-98.81-18.97-98.81-17.02L-98.81-17.02Q-98.81-14.10-100.37-11.61L-100.37-11.61Q-102.11-8.85-104.97-7.26L-104.97-7.26Q-101.27-6.60-99.35-3.68L-99.35-3.68Q-97.70-1.13-97.70 2.65L-97.70 2.65Q-97.70 4.21-98.00 6.11Q-98.30 8.00-98.90 9.86L-98.90 9.86Q-100.37 14.48-103.08 17.10L-103.08 17.10Q-106.44 20.37-111.15 20.37L-111.15 20.37Z"/><path fill="#000000" opacity="1" d="M-89.44 19.68Q-92.39 19.68-94.10 17.94L-94.10 17.94Q-96.02 16.02-96.02 12.32L-96.02 12.32Q-96.02 10.58-95.54 8.30L-95.54 8.30L-91.36-11.43L-82.51-11.43L-86.92 9.47Q-87.10 10.40-87.10 11.21L-87.10 11.21Q-87.10 13.73-85.27 13.73L-85.27 13.73Q-83.59 13.73-82.24 12.20L-82.24 12.20Q-81.15 10.91-80.34 8.30L-80.34 8.30L-76.17-11.43L-67.31-11.43L-71.72 9.47Q-72.00 10.37-72.00 11.45L-72.00 11.45Q-72.00 12.71-71.39 13.22Q-70.79 13.73-69.47 13.73L-69.47 13.73Q-67.76 13.73-66.41 12.20L-66.41 12.20Q-65.21 10.85-64.49 8.30L-64.49 8.30L-61.91 8.30Q-63.56 12.98-65.90 15.72L-65.90 15.72Q-67.88 17.97-70.37 18.96L-70.37 18.96Q-72.21 19.68-74.25 19.68L-74.25 19.68Q-76.89 19.68-78.45 18.21Q-80.01 16.74-80.34 13.85L-80.34 13.85Q-82.45 17.22-85.09 18.66L-85.09 18.66Q-86.98 19.68-89.44 19.68L-89.44 19.68Z"/><path fill="#000000" opacity="1" d="M-55.69 19.68Q-60.22 19.68-62.69 17.40L-62.69 17.40Q-65.30 14.97-65.30 9.92L-65.30 9.92Q-65.30 8.03-64.92 5.72Q-64.55 3.40-63.80 1.09L-63.80 1.09Q-62.96-1.49-61.65-3.80Q-60.34-6.12-58.60-7.89L-58.60-7.89Q-54.58-11.97-48.69-11.97L-48.69-11.97Q-44.94-11.97-43.23-10.17L-43.23-10.17Q-41.91-8.76-41.91-6.09L-41.91-6.09Q-41.91-3.47-43.05-1.18Q-44.19 1.12-46.20 2.89L-46.20 2.89Q-48.21 4.64-50.76 5.67Q-53.32 6.71-56.05 6.89L-56.05 6.89Q-56.20 8.45-56.20 9.35L-56.20 9.35Q-56.20 12.35-55.06 13.49L-55.06 13.49Q-54.07 14.51-51.76 14.51L-51.76 14.51Q-48.42 14.51-45.66 12.71L-45.66 12.71Q-44.49 11.96-43.41 10.93Q-42.33 9.89-40.88 8.30L-40.88 8.30L-38.78 8.30Q-41.70 13.22-45.48 16.14L-45.48 16.14Q-50.13 19.68-55.69 19.68L-55.69 19.68ZM-55.57 3.94Q-53.86 3.82-52.24 2.95Q-50.61 2.08-49.35 0.67L-49.35 0.67Q-48.09-0.77-47.37-2.56Q-46.65-4.34-46.65-6.21L-46.65-6.21Q-46.65-7.44-47.00-8.08Q-47.34-8.73-48.18-8.73L-48.18-8.73Q-49.29-8.73-50.42-7.65Q-51.55-6.57-52.60-4.67L-52.60-4.67Q-53.56-2.90-54.34-0.65Q-55.12 1.60-55.57 3.94L-55.57 3.94Z"/><path fill="#000000" opacity="1" d="M-18.69 19.68Q-22.51 19.68-24.34 17.52L-24.34 17.52Q-25.93 15.66-25.93 12.74L-25.93 12.74Q-25.93 11.36-25.58 9.53Q-25.24 7.70-24.55 4.82L-24.55 4.82Q-23.86 1.87-23.51 0.12Q-23.17-1.64-23.17-2.93L-23.17-2.93Q-23.17-6.09-25.39-6.09L-25.39-6.09Q-26.95-6.09-28.27-4.43L-28.27-4.43Q-29.38-3.02-30.19-0.41L-30.19-0.41L-34.37 19.32L-43.23 19.32L-36.71-11.43L-27.85-11.43L-28.51-8.25Q-26.71-10.26-24.64-11.07L-24.64-11.07Q-23.11-11.67-21.34-11.67L-21.34-11.67Q-18.21-11.67-16.41-10.05L-16.41-10.05Q-14.49-8.28-14.49-4.73L-14.49-4.73Q-14.49-2.60-15.27 0.82L-15.27 0.82Q-15.48 1.81-15.96 3.79L-15.96 3.79Q-16.83 7.13-17.22 9.11L-17.22 9.11Q-17.46 10.37-17.46 11.15L-17.46 11.15Q-17.46 12.38-16.91 13.06Q-16.35 13.73-15.00 13.73L-15.00 13.73Q-13.17 13.73-11.91 12.23L-11.91 12.23Q-10.95 11.09-9.83 8.30L-9.83 8.30L-7.25 8.30Q-9.53 15.06-13.02 17.76L-13.02 17.76Q-15.48 19.68-18.69 19.68L-18.69 19.68Z"/><path fill="#000000" opacity="1" d="M5.21 20.43Q2.27 20.43-0.11 19.66Q-2.48 18.90-4.19 17.46L-4.19 17.46Q-5.93 16.02-6.85 14.03Q-7.76 12.05-7.76 9.65L-7.76 9.65Q-7.76 7.64-7.12 5.85Q-6.47 4.06-5.30 2.74L-5.30 2.74Q-4.13 1.42-2.57 0.69Q-1.01-0.05 0.74-0.05L0.74-0.05Q2.90-0.05 4.37 1.03Q5.84 2.11 6.20 4.00L6.20 4.00Q2.99 4.00 1.10 5.72L1.10 5.72Q0.20 6.53-0.30 7.70Q-0.80 8.87-0.80 10.28L-0.80 10.28Q-0.80 12.98 0.78 14.56Q2.36 16.14 5.03 16.14L5.03 16.14Q6.62 16.14 8.00 15.55Q9.38 14.97 10.41 13.94L10.41 13.94Q11.43 12.92 11.98 11.50Q12.54 10.07 12.54 8.45L12.54 8.45Q12.54 5.45 10.50 2.20L10.50 2.20Q9.68 0.94 8.71-0.27Q7.73-1.49 5.99-3.50L5.99-3.50Q4.43-5.30 3.38-6.63Q2.33-7.95 1.49-9.33L1.49-9.33Q-0.56-12.66-0.56-15.87L-0.56-15.87Q-0.56-18.28 0.47-20.33Q1.49-22.39 3.38-23.92L3.38-23.92Q5.27-25.45 7.79-26.29Q10.32-27.14 13.23-27.14L13.23-27.14Q18.18-27.14 21.19-24.79L21.19-24.79Q22.63-23.65 23.39-22.06Q24.16-20.47 24.16-18.52L24.16-18.52Q24.16-15.96 22.87-14.34L22.87-14.34Q22.27-13.56 21.38-13.14Q20.49-12.72 19.50-12.72L19.50-12.72Q17.19-12.72 15.75-14.64L15.75-14.64Q16.92-15.48 17.60-16.88Q18.27-18.28 18.27-19.87L18.27-19.87Q18.27-21.85 17.10-23.01Q15.93-24.16 13.89-24.16L13.89-24.16Q12.66-24.16 11.62-23.71Q10.59-23.26 9.86-22.42L9.86-22.42Q9.11-21.58 8.71-20.44Q8.30-19.30 8.30-17.95L8.30-17.95Q8.30-16.02 9.20-14.25Q10.10-12.48 11.79-10.56L11.79-10.56Q13.29-8.79 15.03-7.05L15.03-7.05Q19.08-2.84 20.77 1.15L20.77 1.15Q21.76 3.52 21.76 6.38L21.76 6.38Q21.76 9.38 20.53 11.95Q19.29 14.51 17.01 16.41L17.01 16.41Q14.73 18.33 11.70 19.38Q8.66 20.43 5.21 20.43L5.21 20.43Z"/><path fill="#000000" opacity="1" d="M32.60 19.68Q29.08 19.68 26.92 17.49L26.92 17.49Q24.40 14.91 24.40 9.80L24.40 9.80Q24.40 7.64 24.83 5.24Q25.27 2.83 26.11 0.49L26.11 0.49Q28.03-4.79 31.37-8.04L31.37-8.04Q35.21-11.73 40.22-11.73L40.22-11.73Q42.72-11.73 43.96-10.87Q45.21-10.02 45.21-8.61L45.21-8.61L45.21-8.16L45.87-11.43L54.73-11.43L50.31 9.47Q50.04 10.37 50.04 11.45L50.04 11.45Q50.04 14.09 52.57 14.09L52.57 14.09Q54.25 14.09 55.63 12.38L55.63 12.38Q56.80 10.94 57.55 8.30L57.55 8.30L60.13 8.30Q58.48 12.98 56.14 15.72L56.14 15.72Q54.16 17.97 51.67 18.96L51.67 18.96Q49.83 19.68 47.79 19.68L47.79 19.68Q45.18 19.68 43.63 18.25Q42.09 16.83 41.76 14.03L41.76 14.03Q40.01 16.50 38.09 17.88L38.09 17.88Q35.63 19.68 32.60 19.68L32.60 19.68ZM36.59 13.73Q37.28 13.73 38.05 13.37Q38.81 13.01 39.53 12.35L39.53 12.35Q41.16 10.79 41.70 8.30L41.70 8.30L44.64-5.57Q44.64-5.87 44.50-6.28Q44.37-6.69 44.13-7.05L44.13-7.05Q43.41-7.92 42.12-7.92L42.12-7.92Q40.88-7.92 39.73-7.11Q38.57-6.30 37.55-4.85L37.55-4.85Q35.75-2.24 34.58 1.96L34.58 1.96Q34.04 3.82 33.77 5.64Q33.50 7.46 33.50 8.93L33.50 8.93Q33.50 11.99 34.64 13.07L34.64 13.07Q35.03 13.49 35.51 13.61Q35.99 13.73 36.59 13.73L36.59 13.73Z"/><path fill="#000000" opacity="1" d="M65.72 19.68Q61.52 19.68 59.32 17.62Q57.13 15.57 57.13 11.81L57.13 11.81Q57.13 9.80 57.55 8.30L57.55 8.30L64.13-22.51L73.23-23.74L70.28-9.90Q72.06-10.98 73.29-11.34L73.29-11.34Q74.19-11.61 75.33-11.61L75.33-11.61Q78.78-11.61 80.58-9.30L80.58-9.30Q82.60-6.69 82.60-1.10L82.60-1.10Q82.60 0.82 82.24 3.06Q81.87 5.30 81.12 7.49L81.12 7.49Q79.32 12.74 75.90 15.90L75.90 15.90Q71.76 19.68 65.72 19.68L65.72 19.68ZM69.17 13.73Q71.03 13.73 72.84 11.24L72.84 11.24Q74.40 9.02 75.42 5.42L75.42 5.42Q76.38 1.87 76.38-1.34L76.38-1.34Q76.38-3.83 75.60-5.42L75.60-5.42Q75.18-6.30 74.55-6.78Q73.92-7.26 73.11-7.26L73.11-7.26Q72.06-7.26 71.21-7.05L71.21-7.05Q69.95-6.72 69.47-6.15L69.47-6.15L66.11 9.47Q65.93 10.22 65.93 10.88L65.93 10.88Q65.93 13.73 69.17 13.73L69.17 13.73Z"/><path fill="#000000" opacity="1" d="M93.83 19.56Q89.26 19.56 86.77 17.34L86.77 17.34Q83.98 14.88 83.98 9.86L83.98 9.86Q83.98 7.97 84.37 5.67Q84.76 3.37 85.57 1.03L85.57 1.03Q87.43-4.55 90.88-7.89L90.88-7.89Q95.06-11.97 100.82-11.97L100.82-11.97Q108.72-11.97 108.72-2.15L108.72-2.15L108.72-2.09Q108.90-2.03 109.02-2.03L109.02-2.03L109.38-2.03Q111.42-2.03 114.22-3.17L114.22-3.17Q116.68-4.19 118.87-5.72L118.87-5.72L119.41-4.04Q117.61-2.15 114.77-0.83Q111.93 0.49 108.51 1.06L108.51 1.06Q108.15 5.24 106.89 8.67Q105.63 12.11 103.65 14.57L103.65 14.57Q101.69 16.98 99.17 18.27Q96.65 19.56 93.83 19.56L93.83 19.56ZM96.29 14.03Q97.37 14.03 98.50 13.06Q99.62 12.08 100.61 10.34L100.61 10.34Q101.60 8.60 102.32 6.26Q103.05 3.91 103.41 1.24L103.41 1.24Q102.51 1.00 102.13 0.34Q101.75-0.32 101.75-1.34L101.75-1.34Q101.75-2.60 102.26-3.44Q102.78-4.28 103.68-4.67L103.68-4.67Q103.56-6.63 103.05-7.47L103.05-7.47Q102.78-7.89 102.37-8.07Q101.96-8.25 101.33-8.25L101.33-8.25Q99.26-8.25 97.28-5.12L97.28-5.12Q95.45-2.30 94.28 1.84L94.28 1.84Q93.14 5.90 93.14 9.05L93.14 9.05Q93.14 10.58 93.30 11.54Q93.47 12.50 93.86 13.04L93.86 13.04Q94.22 13.58 94.79 13.81Q95.36 14.03 96.29 14.03L96.29 14.03Z"/><path fill="#000000" opacity="1" d="M109.50 19.32L116.02-11.43L124.88-11.43L124.10-7.62Q126.20-9.48 127.52-10.26L127.52-10.26Q129.56-11.43 131.51-11.43L131.51-11.43Q133.50-11.43 134.70-10.02L134.70-10.02Q135.24-9.39 135.51-8.56Q135.78-7.74 135.78-6.81L135.78-6.81Q135.78-5.97 135.51-5.18Q135.24-4.40 134.70-3.77L134.70-3.77Q134.10-3.11 133.24-2.72Q132.38-2.33 131.33-2.33L131.33-2.33Q130.52-2.33 130.04-2.60Q129.56-2.87 129.29-3.38L129.29-3.38Q129.05-3.89 128.96-4.37L128.96-4.37Q128.69-5.66 128.42-6.09L128.42-6.09Q128.21-6.39 127.76-6.39L127.76-6.39Q126.47-6.39 125.57-5.84Q124.67-5.30 123.29-4.04L123.29-4.04L118.36 19.32L109.50 19.32Z"/></g><g transform="matrix(2.677856008786502 -0.24014858402067937 0.15183267037371714 1.6930602791118137 310.8643702921503 294.1921505815787)"  >
<path style="stroke: none; stroke-width: 0; stroke-dasharray: none; stroke-linecap: butt; stroke-dashoffset: 0; stroke-linejoin: miter; stroke-miterlimit: 4; fill: rgb(0,0,0); fill-rule: nonzero; opacity: 1;"  transform=" translate(-49.9821566566983, -49.7)" d="M 92.1 53.1 c -25.6 -11.6 -58.6 -11.6 -84.2 0 c -0.5 0.2 -0.7 0.8 -0.5 1.3 c 0.2 0.5 0.8 0.7 1.3 0.5 c 25.1 -11.4 57.5 -11.4 82.5 0 c 0.1 0.1 0.3 0.1 0.4 0.1 c 0.4 0 0.7 -0.2 0.9 -0.6 C 92.8 53.9 92.6 53.3 92.1 53.1 z" stroke-linecap="round" />
</g>
</svg>