<?xml version="1.0" encoding="UTF-8" standalone="no" ?>
<!DOCTYPE svg PUBLIC "-//W3C//DTD SVG 1.1//EN" "http://www.w3.org/Graphics/SVG/1.1/DTD/svg11.dtd">
<svg xmlns="http://www.w3.org/2000/svg" xmlns:xlink="http://www.w3.org/1999/xlink" version="1.1" width="500" height="500" viewBox="0 0 500 500" xml:space="preserve">
<desc>Created with Fabric.js 3.6.3</desc>
<defs>
</defs>
<g transform="matrix(1 0 0 1 248.18738008611405 251.28550000000004)" style=""  ><path fill="#000000" opacity="1" d="M-164.32-14.18L-164.32-14.18Q-164.85-16.42-164.42-18.55Q-164.00-20.68-164.26-22.87Q-164.53-25.06-166.13-26.02L-166.13-26.02Q-166.56-26.34-168.16-26.50Q-169.76-26.66-170.29-27.41L-170.29-27.41Q-171.79-29.86-170.08-32.26Q-168.37-34.66-166.67-34.66L-166.67-34.66Q-165.60-34.66-162.88-34.72Q-160.16-34.77-158.66-34.77Q-157.17-34.77-154.93-34.56Q-152.69-34.34-150.93-33.81Q-149.17-33.28-147.57-32.42L-147.57-32.42Q-146.61-31.89-140.63-29.75Q-134.66-27.62-132.52-24.63L-132.52-24.63Q-131.56-22.71-132.09-21.43L-132.09-21.43Q-133.48-20.26-136.15-17.91Q-138.82-15.56-141.06-13.75Q-143.30-11.94-145.75-10.55L-145.75-10.55Q-146.50-10.55-147.25-9.59L-147.25-9.59Q-147.78-8.95-147.03-8.73L-147.03-8.73Q-141.06-7.56-136.52-4.68Q-131.99-1.80-130.71 2.58L-130.71 2.58Q-128.47 10.36-137.96 19.86L-137.96 19.86Q-144.15 26.05-149.59 29.62Q-155.04 33.20-161.12 33.52L-161.12 33.52Q-162.82 33.63-164.26 32.45Q-165.71 31.28-164.85 29.46L-164.85 29.46Q-164.42 28.61-162.77 27.01Q-161.12 25.41-161.12 24.88L-161.12 24.88Q-160.90 22.85-160.90 20.66Q-160.90 18.47-161.01 16.77Q-161.12 15.06-161.49 12.50Q-161.86 9.94-162.08 8.60Q-162.29 7.27-162.77 4.34Q-163.25 1.40-163.46 0.34L-163.46 0.34Q-163.57-0.41-164.10-1.75Q-164.64-3.08-164.96-4.04Q-165.28-5.00-165.22-6.33Q-165.17-7.67-164.32-8.73L-164.32-8.73Q-163.36-9.91-164.32-14.18ZM-155.25-21.00L-155.25-21.00Q-155.36-20.15-154.98-18.34Q-154.61-16.52-154.82-15.56L-154.82-15.56Q-151.51-15.24-148.74-17.11Q-145.97-18.98-145.22-21.43L-145.22-21.43Q-144.79-22.29-145.70-22.87Q-146.61-23.46-148.58-24.10Q-150.55-24.74-151.19-25.06L-151.19-25.06Q-153.01-26.02-153.91-24.69Q-154.82-23.35-155.25-21.00ZM-152.58 10.36L-152.58 10.36Q-152.47 11.22-152.21 13.67Q-151.94 16.13-151.62 17.73Q-151.30 19.33-150.66 20.82L-150.66 20.82Q-150.13 20.39-147.67 18.42Q-145.22 16.45-144.37 15.59Q-143.51 14.74-142.07 12.98Q-140.63 11.22-140.26 9.46Q-139.88 7.70-140.31 5.78L-140.31 5.78Q-140.74 3.54-143.40 1.56Q-146.07-0.41-148.79-0.84Q-151.51-1.27-153.43 0.34L-153.43 0.34Q-153.97 2.15-153.91 3.11Q-153.86 4.07-153.27 6.63Q-152.69 9.19-152.58 10.36Z"/><path fill="#000000" opacity="1" d="M-128.68-4.68L-128.68-4.68Q-128.68-5.21-128.63-7.40Q-128.57-9.59-128.47-10.50Q-128.36-11.40-127.77-12.74Q-127.19-14.07-126.01-14.82L-126.01-14.82Q-123.24-16.10-120.09-15.19Q-116.94-14.28-116.94-11.62L-116.94-11.62Q-116.94-9.27-117.16-5.00Q-117.37-0.73-117.37 2.74Q-117.37 6.20-116.94 9.30L-116.94 9.30Q-116.73 9.94-116.46 11.43Q-116.20 12.93-115.93 13.99Q-115.66 15.06-115.29 16.61Q-114.92 18.15-114.49 18.95Q-114.06 19.75-113.42 20.66Q-112.78 21.57-112.14 21.46Q-111.50 21.35-110.54 21.03L-110.54 21.03Q-103.61 16.34-102.01 7.00Q-100.40-2.33-105.21-10.01L-105.21-10.01Q-106.17-11.51-106.70-13.00Q-107.23-14.50-107.13-15.99Q-107.02-17.48-105.74-18.02L-105.74-18.02Q-100.62-20.15-96.67-15.46Q-92.72-10.76-92.40-5.21L-92.40-5.21Q-91.76 5.78-95.23 15.38Q-98.70 24.98-106.81 28.50L-106.81 28.50Q-112.25 30.96-116.20 29.46Q-120.14 27.97-122.71 24.40Q-125.27 20.82-126.71 15.54Q-128.15 10.26-128.57 5.14Q-129.00 0.01-128.68-4.68Z"/><path fill="#000000" opacity="1" d="M-90.05 3.43L-90.05 3.43Q-90.27-4.57-85.04-9.48Q-79.81-14.39-72.02-13.32L-72.02-13.32Q-65.62-12.47-60.87-7.13Q-56.12-1.80-56.23 4.82L-56.23 4.82Q-57.19 7.80-65.03 12.45Q-72.88 17.09-73.94 18.15L-73.94 18.15Q-74.48 18.26-75.28 19.01Q-76.08 19.75-75.65 20.39L-75.65 20.39Q-74.37 22.74-72.45 23.70Q-70.53 24.66-68.13 24.24Q-65.73 23.81-63.75 23.06Q-61.78 22.32-59.11 20.93L-59.11 20.93Q-56.34 23.06-57.35 26.64Q-58.36 30.21-61.67 30.74L-61.67 30.74Q-61.89 30.74-64.02 31.12Q-66.15 31.49-66.69 31.54Q-67.22 31.60-69.03 31.76Q-70.85 31.92-71.81 31.76Q-72.77 31.60-74.16 31.33Q-75.54 31.06-76.82 30.53L-76.82 30.53Q-89.63 24.77-90.05 3.43ZM-78.42 8.87L-78.42 8.87Q-68.82 8.44-66.90 2.15L-66.90 2.15Q-65.19-1.59-69.68-3.56Q-74.16-5.53-77.68-3.72L-77.68-3.72Q-79.81-2.55-80.51 0.50Q-81.20 3.54-80.45 6.15Q-79.70 8.76-78.42 8.87Z"/><path fill="#000000" opacity="1" d="M-51.64 10.36L-51.64 10.36Q-51.64 8.66-51.96 4.66Q-52.28 0.66-52.18-2.17Q-52.07-5.00-51.22-7.24L-51.22-7.24Q-50.26-9.69-46.89-9.53Q-43.53-9.37-42.79-6.71L-42.79-6.71Q-42.36-5.21-43.05-2.44Q-43.75 0.34-43.75 1.40L-43.75 1.40Q-43.53 1.62-43.21 2.26L-43.21 2.26Q-42.89 2.68-42.79 2.68L-42.79 2.68Q-42.57 2.36-41.77 0.98Q-40.97-0.41-40.71-0.89Q-40.44-1.37-39.64-2.55Q-38.84-3.72-38.41-4.15Q-37.99-4.57-37.18-5.48Q-36.38-6.39-35.74-6.71Q-35.10-7.03-34.20-7.51Q-33.29-7.99-32.44-8.04Q-31.58-8.09-30.57-8.04Q-29.56-7.99-28.38-7.67L-28.38-7.67Q-26.68-5.00-25.55-2.07Q-24.43 0.87-23.90 4.92Q-23.37 8.98-23.15 10.84Q-22.94 12.71-22.73 18.10Q-22.51 23.49-22.51 24.34L-22.51 24.34Q-21.45 29.04-23.90 29.78L-23.90 29.78Q-30.73 31.60-31.16 28.82L-31.16 28.82Q-31.80 24.77-32.12 16.02Q-32.44 7.27-33.40 2.68L-33.40 2.68Q-36.38 5.99-39.27 13.62Q-42.15 21.25-43.75 23.92L-43.75 23.92Q-45.03 26.05-47.64 26.16Q-50.26 26.26-51.22 23.92L-51.22 23.92Q-51.86 22.10-51.96 19.91Q-52.07 17.73-51.86 14.69Q-51.64 11.65-51.64 10.36Z"/><path fill="#000000" opacity="1" d="M-12.80-11.40L-12.80-11.40Q-13.34-12.15-14.30-13.16Q-15.26-14.18-15.79-14.82Q-16.33-15.46-16.75-16.31Q-17.18-17.16-17.02-17.91Q-16.86-18.66-16.22-19.51L-16.22-19.51Q-13.55-22.82-10.08-25.17Q-6.62-27.51-2.40-28.90Q1.81-30.29 5.39-31.14Q8.96-32.00 14.08-32.96Q19.21-33.92 22.19-34.66L22.19-34.66Q24.33-35.20 26.35-34.08Q28.38-32.96 29.13-31.14L29.13-31.14Q29.98-29.22 28.33-27.57Q26.67-25.91 24.54-25.38L24.54-25.38Q21.13-24.10 12.70-22.93Q4.27-21.75 0.11-19.51L0.11-19.51Q-2.35-18.12-1.71-16.63L-1.71-16.63Q0.32-13.64 3.73-10.55Q7.15-7.45 10.46-5.32Q13.76-3.19 17.34-0.36Q20.91 2.47 23.05 4.98Q25.18 7.48 26.41 11.17Q27.64 14.85 26.25 18.90L26.25 18.90Q24.75 24.34 20.22 27.92Q15.68 31.49 9.92 32.72Q4.16 33.95-2.08 33.41Q-8.32 32.88-13.34 30.53L-13.34 30.53Q-17.50 28.40-16.11 24.02Q-14.72 19.65-10.46 17.73L-10.46 17.73Q-8.75 17.41-7.42 19.54Q-6.08 21.68-5.23 21.89L-5.23 21.89Q-4.59 22.00-2.08 22.21Q0.43 22.42 1.81 23.06L1.81 23.06Q3.52 23.81 5.44 23.76Q7.36 23.70 8.27 23.44Q9.18 23.17 11.74 22.00Q14.30 20.82 14.62 20.71L14.62 20.71Q18.03 18.05 15.79 13.67L15.79 13.67Q11.74 8.44 1.55 1.19Q-8.64-6.07-12.80-11.40Z"/><path fill="#000000" opacity="1" d="M56.98 35.76L56.98 35.76Q56.12 35.23 55.22 33.57Q54.31 31.92 53.56 31.92L53.56 31.92Q52.07 31.70 49.03 31.28Q45.99 30.85 44.23 30.48Q42.47 30.10 40.12 29.36Q37.77 28.61 36.06 27.22Q34.36 25.84 33.18 23.81L33.18 23.81Q31.16 20.71 31.58 16.18Q32.01 11.65 34.14 8.87L34.14 8.87Q36.60 5.56 39.91 3.59Q43.21 1.62 46.25 0.98Q49.30 0.34 51.96 0.28Q54.63 0.23 56.34 0.44L56.34 0.44L58.04 0.55Q58.90-0.52 58.90-3.19Q58.90-5.85 57.30-6.17L57.30-6.17Q55.70-6.92 52.98-6.49Q50.26-6.07 49.14-5.75Q48.01-5.43 45.40-4.31Q42.79-3.19 41.40-2.76L41.40-2.76Q38.63-1.80 37.34-5.80Q36.06-9.80 37.13-10.87L37.13-10.87Q41.19-13.64 46.73-15.03Q52.28-16.42 57.78-15.08Q63.27-13.75 65.51-9.05L65.51-9.05Q67.01-5.96 67.17-2.17Q67.33 1.62 66.63 4.60Q65.94 7.59 65.03 11.81Q64.13 16.02 63.91 19.01L63.91 19.01Q63.06 32.45 60.82 35.33L60.82 35.33Q59.22 37.15 56.98 35.76ZM55.06 22.85L55.06 22.85Q55.38 21.35 56.02 19.11Q56.66 16.87 57.03 15.49Q57.40 14.10 57.35 12.13Q57.30 10.15 56.44 8.12L56.44 8.12Q54.74 8.76 51.27 9.35Q47.80 9.94 45.51 10.42Q43.21 10.90 41.29 12.77Q39.37 14.63 39.27 17.83L39.27 17.83Q39.27 19.97 43.16 21.68Q47.05 23.38 50.58 23.49Q54.10 23.60 55.06 22.85Z"/><path fill="#000000" opacity="1" d="M75.12 33.20L75.12 33.20Q73.73 32.88 72.34 29.78L72.34 29.78Q71.92 26.26 71.65 16.07Q71.38 5.88 70.10 0.23L70.10 0.23Q70.00-0.09 69.30-1.48Q68.61-2.87 68.39-3.93Q68.18-5.00 68.39-5.96L68.39-5.96Q68.71-6.49 69.57-7.35Q70.42-8.20 70.64-8.73L70.64-8.73Q70.85-11.08 70.58-18.82Q70.32-26.55 71.17-28.90L71.17-28.90Q71.81-31.78 74.64-33.81Q77.46-35.84 79.60-33.38L79.60-33.38Q81.63-31.25 81.79-28.26Q81.95-25.27 81.04-22.50Q80.13-19.72 79.97-16.42Q79.81-13.11 81.20-10.44L81.20-10.44Q87.49-10.12 92.88-8.52Q98.27-6.92 102.81-3.24Q107.34 0.44 109.15 5.78L109.15 5.78Q110.86 10.58 108.35 15.81Q105.85 21.03 101.36 24.24L101.36 24.24Q94.32 29.25 87.97 31.81Q81.63 34.37 75.12 33.20ZM82.91 22.53L82.91 22.53Q89.20 22.10 94.54 18.58Q99.87 15.06 99.66 9.72L99.66 9.72Q99.55 6.31 96.30 3.43Q93.04 0.55 88.56-0.73Q84.08-2.01 80.13-1.48L80.13-1.48Q80.13 14.74 82.91 22.53Z"/><path fill="#000000" opacity="1" d="M122.70 19.54L122.70 19.54Q117.37 16.34 115.13 10.36Q112.89 4.39 114.70-1.80L114.70-1.80Q115.66-5.32 118.44-9.21Q121.21-13.11 121.53-13.86L121.53-13.86Q123.67-17.91 127.99-17.48Q132.31-17.06 135.62-13.43L135.62-13.43Q139.14-9.37 140.84-2.97L140.84-2.97Q143.72 7.80 133.48 18.58L133.48 18.58Q131.77 20.39 128.31 20.61Q124.84 20.82 122.70 19.54ZM126.12 8.98L126.12 8.98Q129.75 9.83 131.45 7.38Q133.16 4.92 132.36 1.08Q131.56-2.76 128.79-5.85L128.79-5.85Q127.61-7.13 124.73-3.83L124.73-3.83Q120.78 0.55 121.32 4.60L121.32 4.60Q121.74 8.02 126.12 8.98Z"/><path fill="#000000" opacity="1" d="M144.69 0.44L144.69 0.44Q144.47-1.16 143.56-3.61Q142.66-6.07 142.07-7.83Q141.48-9.59 141.70-11.62Q141.91-13.64 143.62-15.14L143.62-15.14Q147.57-18.55 151.35-15.24Q155.14-11.94 154.29-6.60L154.29-6.60Q156.32-6.92 158.34-8.57Q160.37-10.23 161.65-11.83Q162.93-13.43 165.12-14.39Q167.31-15.35 169.87-14.60L169.87-14.60Q170.93-14.18 171.25-14.02Q171.57-13.86 172.48-13.43Q173.39-13.00 173.60-12.68Q173.81-12.36 174.19-11.83Q174.56-11.30 174.35-10.66Q174.13-10.01 173.60-9.27L173.60-9.27Q171.57-6.39 166.19-1.96Q160.80 2.47 158.56 5.78L158.56 5.78Q157.70 6.95 157.54 9.62Q157.38 12.29 156.96 13.25L156.96 13.25Q154.93 16.34 158.02 20.18L158.02 20.18Q159.62 22.21 159.30 25.52Q158.98 28.82 156.96 30.85L156.96 30.85Q155.36 33.20 152.42 33.31Q149.49 33.41 147.89 31.38L147.89 31.38Q146.07 30.21 146.29 26.58L146.29 26.58Q146.71 17.09 144.69 0.44Z"/></g></svg>