<?xml version="1.0" encoding="UTF-8" standalone="no" ?>
<!DOCTYPE svg PUBLIC "-//W3C//DTD SVG 1.1//EN" "http://www.w3.org/Graphics/SVG/1.1/DTD/svg11.dtd">
<svg xmlns="http://www.w3.org/2000/svg" xmlns:xlink="http://www.w3.org/1999/xlink" version="1.1" width="500" height="500" viewBox="0 0 500 500" xml:space="preserve">
<desc>Created with Fabric.js 3.6.3</desc>
<defs>
</defs>
<g transform="matrix(0.9926546770915378 -0.12098219723701084 0.09694448148845158 0.9955843320208231 250.28441864751932 238.5609199724325)" style=""  ><path fill="#000000" opacity="1" d="M-152.81 28.01Q-156.32 28.01-158.35 26.81L-158.35 26.81Q-161.19 25.16-161.19 21.73L-161.19 21.73Q-161.19 19.46-160.12 16.82L-160.12 16.82Q-158.55 18.51-157.23 19.19Q-155.91 19.87-154.42 19.87L-154.42 19.87Q-150.21 19.87-147.94 14.67L-147.94 14.67Q-146.99 12.57-146.54 9.90Q-146.08 7.24-146.08 4.68L-146.08 4.68Q-146.08-0.19-147.78-2.92L-147.78-2.92Q-149.80-6.10-154.09-6.10L-154.09-6.10Q-156.36-6.10-157.97-5.81L-157.97-5.81L-164.91 26.56L-177.09 26.56L-165.61-27.23L-153.10-28.88L-157.07-10.14L-156.57-10.14Q-154.13-10.14-151.91-11.34Q-149.68-12.54-147.98-14.60L-147.98-14.60Q-146.33-16.62-145.36-19.06Q-144.39-21.49-144.39-23.85L-144.39-23.85Q-144.39-25.66-145.03-27.29Q-145.67-28.93-146.95-30.16L-146.95-30.16Q-149.88-32.97-155.54-32.97L-155.54-32.97Q-160.74-32.97-165.41-30.74L-165.41-30.74Q-170.61-28.22-173.37-23.93L-173.37-23.93Q-176.68-18.93-176.68-12.41L-176.68-12.41Q-176.68-9.69-176.06-8.20L-176.06-8.20Q-175.89-7.66-175.64-7.25L-175.64-7.25Q-175.48-6.96-175.48-6.67L-175.48-6.67Q-179.98-6.67-182.25-8.47Q-184.52-10.26-184.52-14.43L-184.52-14.43Q-184.52-20.21-180.10-25.46L-180.10-25.46Q-178.04-27.93-175.17-30.02Q-172.30-32.10-168.87-33.63L-168.87-33.63Q-161.65-36.85-153.85-36.85L-153.85-36.85Q-145.13-36.85-140.18-32.72L-140.18-32.72Q-138.03-30.91-136.94-28.49Q-135.85-26.08-135.85-23.39L-135.85-23.39Q-135.85-19.39-137.99-15.96L-137.99-15.96Q-140.39-12.16-144.31-9.98L-144.31-9.98Q-139.23-9.07-136.59-5.06L-136.59-5.06Q-134.32-1.55-134.32 3.65L-134.32 3.65Q-134.32 5.79-134.73 8.40Q-135.14 11.00-135.97 13.56L-135.97 13.56Q-137.99 19.91-141.71 23.51L-141.71 23.51Q-146.33 28.01-152.81 28.01L-152.81 28.01Z"/><path fill="#000000" opacity="1" d="M-122.96 27.06Q-127.01 27.06-129.36 24.66L-129.36 24.66Q-132.01 22.02-132.01 16.94L-132.01 16.94Q-132.01 14.55-131.35 11.41L-131.35 11.41L-125.61-15.71L-113.43-15.71L-119.50 13.02Q-119.74 14.30-119.74 15.41L-119.74 15.41Q-119.74 18.88-117.23 18.88L-117.23 18.88Q-114.91 18.88-113.06 16.78L-113.06 16.78Q-111.57 15.00-110.46 11.41L-110.46 11.41L-104.72-15.71L-92.54-15.71L-98.61 13.02Q-98.98 14.26-98.98 15.74L-98.98 15.74Q-98.98 17.48-98.15 18.18Q-97.33 18.88-95.51 18.88L-95.51 18.88Q-93.16 18.88-91.30 16.78L-91.30 16.78Q-89.65 14.92-88.66 11.41L-88.66 11.41L-85.11 11.41Q-87.38 17.85-90.60 21.61L-90.60 21.61Q-93.32 24.70-96.75 26.07L-96.75 26.07Q-99.27 27.06-102.08 27.06L-102.08 27.06Q-105.71 27.06-107.85 25.03Q-110.00 23.01-110.46 19.05L-110.46 19.05Q-113.35 23.67-116.98 25.65L-116.98 25.65Q-119.58 27.06-122.96 27.06L-122.96 27.06Z"/><path fill="#000000" opacity="1" d="M-76.56 27.06Q-82.80 27.06-86.18 23.92L-86.18 23.92Q-89.77 20.57-89.77 13.64L-89.77 13.64Q-89.77 11.04-89.26 7.86Q-88.74 4.68-87.71 1.50L-87.71 1.50Q-86.55-2.05-84.76-5.23Q-82.96-8.41-80.57-10.84L-80.57-10.84Q-75.03-16.46-66.94-16.46L-66.94-16.46Q-61.78-16.46-59.43-13.98L-59.43-13.98Q-57.61-12.04-57.61-8.37L-57.61-8.37Q-57.61-4.77-59.18-1.62Q-60.75 1.54-63.52 3.98L-63.52 3.98Q-66.28 6.37-69.79 7.80Q-73.30 9.22-77.06 9.47L-77.06 9.47Q-77.26 11.62-77.26 12.85L-77.26 12.85Q-77.26 16.98-75.69 18.55L-75.69 18.55Q-74.33 19.96-71.15 19.96L-71.15 19.96Q-66.57 19.96-62.77 17.48L-62.77 17.48Q-61.16 16.45-59.68 15.02Q-58.19 13.60-56.21 11.41L-56.21 11.41L-53.32 11.41Q-57.32 18.18-62.52 22.18L-62.52 22.18Q-68.92 27.06-76.56 27.06L-76.56 27.06ZM-76.40 5.42Q-74.04 5.26-71.81 4.06Q-69.58 2.86-67.85 0.92L-67.85 0.92Q-66.12-1.06-65.13-3.51Q-64.13-5.97-64.13-8.53L-64.13-8.53Q-64.13-10.22-64.61-11.11Q-65.08-12.00-66.24-12.00L-66.24-12.00Q-67.77-12.00-69.32-10.51Q-70.86-9.03-72.31-6.43L-72.31-6.43Q-73.63-3.99-74.70-0.89Q-75.78 2.20-76.40 5.42L-76.40 5.42Z"/><path fill="#000000" opacity="1" d="M-25.70 27.06Q-30.94 27.06-33.46 24.08L-33.46 24.08Q-35.65 21.52-35.65 17.52L-35.65 17.52Q-35.65 15.62-35.17 13.10Q-34.70 10.58-33.75 6.62L-33.75 6.62Q-32.80 2.57-32.33 0.16Q-31.85-2.26-31.85-4.03L-31.85-4.03Q-31.85-8.37-34.91-8.37L-34.91-8.37Q-37.05-8.37-38.87-6.10L-38.87-6.10Q-40.40-4.15-41.51-0.56L-41.51-0.56L-47.25 26.56L-59.43 26.56L-50.47-15.71L-38.29-15.71L-39.20-11.34Q-36.72-14.10-33.87-15.22L-33.87-15.22Q-31.77-16.04-29.33-16.04L-29.33-16.04Q-25.04-16.04-22.56-13.82L-22.56-13.82Q-19.92-11.38-19.92-6.51L-19.92-6.51Q-19.92-3.58-20.99 1.13L-20.99 1.13Q-21.28 2.49-21.94 5.22L-21.94 5.22Q-23.14 9.80-23.68 12.52L-23.68 12.52Q-24.01 14.26-24.01 15.33L-24.01 15.33Q-24.01 17.02-23.24 17.95Q-22.48 18.88-20.62 18.88L-20.62 18.88Q-18.10 18.88-16.37 16.82L-16.37 16.82Q-15.05 15.25-13.52 11.41L-13.52 11.41L-9.97 11.41Q-13.11 20.70-17.90 24.41L-17.90 24.41Q-21.28 27.06-25.70 27.06L-25.70 27.06Z"/><path fill="#000000" opacity="1" d="M7.16 28.09Q3.12 28.09-0.14 27.04Q-3.41 25.98-5.76 24.00L-5.76 24.00Q-8.15 22.02-9.41 19.29Q-10.67 16.57-10.67 13.27L-10.67 13.27Q-10.67 10.50-9.78 8.04Q-8.90 5.59-7.29 3.77L-7.29 3.77Q-5.68 1.96-3.53 0.94Q-1.38-0.07 1.01-0.07L1.01-0.07Q3.98-0.07 6.01 1.42Q8.03 2.90 8.53 5.51L8.53 5.51Q4.11 5.51 1.51 7.86L1.51 7.86Q0.27 8.97-0.41 10.58Q-1.09 12.19-1.09 14.13L-1.09 14.13Q-1.09 17.85 1.07 20.02Q3.24 22.18 6.92 22.18L6.92 22.18Q9.10 22.18 11.00 21.38Q12.90 20.57 14.30 19.17L14.30 19.17Q15.71 17.77 16.47 15.81Q17.24 13.85 17.24 11.62L17.24 11.62Q17.24 7.49 14.43 3.03L14.43 3.03Q13.31 1.29 11.97-0.38Q10.63-2.05 8.24-4.82L8.24-4.82Q6.09-7.29 4.64-9.11Q3.20-10.93 2.04-12.82L2.04-12.82Q-0.76-17.41-0.76-21.82L-0.76-21.82Q-0.76-25.13 0.64-27.96Q2.04-30.78 4.64-32.89L4.64-32.89Q7.25-34.99 10.71-36.15Q14.18-37.31 18.19-37.31L18.19-37.31Q25.00-37.31 29.13-34.09L29.13-34.09Q31.11-32.52 32.16-30.33Q33.21-28.14 33.21-25.46L33.21-25.46Q33.21-21.95 31.44-19.72L31.44-19.72Q30.61-18.65 29.39-18.07Q28.18-17.49 26.81-17.49L26.81-17.49Q23.64-17.49 21.65-20.13L21.65-20.13Q23.26-21.29 24.19-23.21Q25.12-25.13 25.12-27.32L25.12-27.32Q25.12-30.04 23.51-31.63Q21.90-33.22 19.09-33.22L19.09-33.22Q17.40-33.22 15.98-32.60Q14.55-31.98 13.56-30.82L13.56-30.82Q12.53-29.67 11.97-28.10Q11.42-26.53 11.42-24.67L11.42-24.67Q11.42-22.03 12.65-19.60Q13.89-17.16 16.20-14.52L16.20-14.52Q18.27-12.08 20.66-9.69L20.66-9.69Q26.24-3.91 28.55 1.58L28.55 1.58Q29.91 4.85 29.91 8.77L29.91 8.77Q29.91 12.90 28.22 16.43Q26.53 19.96 23.39 22.56L23.39 22.56Q20.25 25.20 16.08 26.64Q11.91 28.09 7.16 28.09L7.16 28.09Z"/><path fill="#000000" opacity="1" d="M44.81 27.06Q39.98 27.06 37.01 24.04L37.01 24.04Q33.54 20.49 33.54 13.47L33.54 13.47Q33.54 10.50 34.14 7.20Q34.74 3.90 35.90 0.68L35.90 0.68Q38.54-6.59 43.12-11.05L43.12-11.05Q48.41-16.13 55.30-16.13L55.30-16.13Q58.73-16.13 60.44-14.95Q62.15-13.77 62.15-11.83L62.15-11.83L62.15-11.21L63.06-15.71L75.24-15.71L69.17 13.02Q68.80 14.26 68.80 15.74L68.80 15.74Q68.80 19.38 72.27 19.38L72.27 19.38Q74.58 19.38 76.48 17.02L76.48 17.02Q78.09 15.04 79.12 11.41L79.12 11.41L82.67 11.41Q80.40 17.85 77.18 21.61L77.18 21.61Q74.46 24.70 71.03 26.07L71.03 26.07Q68.51 27.06 65.70 27.06L65.70 27.06Q62.11 27.06 59.99 25.09Q57.86 23.13 57.41 19.29L57.41 19.29Q55.01 22.68 52.37 24.58L52.37 24.58Q48.98 27.06 44.81 27.06L44.81 27.06ZM50.30 18.88Q51.25 18.88 52.31 18.39Q53.36 17.89 54.35 16.98L54.35 16.98Q56.58 14.84 57.32 11.41L57.32 11.41L61.37-7.66Q61.37-8.08 61.18-8.63Q61.00-9.19 60.67-9.69L60.67-9.69Q59.68-10.88 57.90-10.88L57.90-10.88Q56.21-10.88 54.62-9.77Q53.03-8.65 51.63-6.67L51.63-6.67Q49.15-3.08 47.54 2.70L47.54 2.70Q46.80 5.26 46.42 7.76Q46.05 10.25 46.05 12.28L46.05 12.28Q46.05 16.49 47.62 17.97L47.62 17.97Q48.16 18.55 48.82 18.72Q49.48 18.88 50.30 18.88L50.30 18.88Z"/><path fill="#000000" opacity="1" d="M90.35 27.06Q84.57 27.06 81.56 24.23Q78.54 21.40 78.54 16.24L78.54 16.24Q78.54 13.47 79.12 11.41L79.12 11.41L88.16-30.95L100.67-32.64L96.63-13.61Q99.06-15.10 100.75-15.59L100.75-15.59Q101.99-15.96 103.56-15.96L103.56-15.96Q108.31-15.96 110.79-12.78L110.79-12.78Q113.55-9.19 113.55-1.51L113.55-1.51Q113.55 1.13 113.06 4.21Q112.56 7.28 111.53 10.29L111.53 10.29Q109.05 17.52 104.35 21.85L104.35 21.85Q98.65 27.06 90.35 27.06L90.35 27.06ZM95.10 18.88Q97.66 18.88 100.13 15.46L100.13 15.46Q102.28 12.40 103.69 7.45L103.69 7.45Q105.01 2.57 105.01-1.84L105.01-1.84Q105.01-5.27 103.93-7.46L103.93-7.46Q103.35-8.65 102.49-9.32Q101.62-9.98 100.51-9.98L100.51-9.98Q99.06-9.98 97.91-9.69L97.91-9.69Q96.17-9.23 95.51-8.45L95.51-8.45L90.89 13.02Q90.64 14.05 90.64 14.96L90.64 14.96Q90.64 18.88 95.10 18.88L95.10 18.88Z"/><path fill="#000000" opacity="1" d="M128.99 26.89Q122.72 26.89 119.29 23.84L119.29 23.84Q115.45 20.45 115.45 13.56L115.45 13.56Q115.45 10.96 115.99 7.80Q116.52 4.64 117.64 1.42L117.64 1.42Q120.20-6.26 124.95-10.84L124.95-10.84Q130.69-16.46 138.61-16.46L138.61-16.46Q149.47-16.46 149.47-2.96L149.47-2.96L149.47-2.88Q149.72-2.79 149.88-2.79L149.88-2.79L150.38-2.79Q153.18-2.79 157.02-4.36L157.02-4.36Q160.41-5.76 163.42-7.87L163.42-7.87L164.17-5.56Q161.69-2.96 157.79-1.14Q153.89 0.68 149.18 1.46L149.18 1.46Q148.68 7.20 146.95 11.93Q145.22 16.65 142.49 20.04L142.49 20.04Q139.81 23.34 136.34 25.12Q132.87 26.89 128.99 26.89L128.99 26.89ZM132.38 19.29Q133.86 19.29 135.41 17.95Q136.96 16.61 138.32 14.22L138.32 14.22Q139.69 11.82 140.68 8.60Q141.67 5.38 142.16 1.71L142.16 1.71Q140.92 1.38 140.41 0.47Q139.89-0.44 139.89-1.84L139.89-1.84Q139.89-3.58 140.59-4.73Q141.30-5.89 142.53-6.43L142.53-6.43Q142.37-9.11 141.67-10.26L141.67-10.26Q141.30-10.84 140.74-11.09Q140.18-11.34 139.31-11.34L139.31-11.34Q136.46-11.34 133.74-7.04L133.74-7.04Q131.22-3.16 129.61 2.53L129.61 2.53Q128.04 8.11 128.04 12.44L128.04 12.44Q128.04 14.55 128.27 15.87Q128.50 17.19 129.03 17.93L129.03 17.93Q129.53 18.68 130.31 18.98Q131.10 19.29 132.38 19.29L132.38 19.29Z"/><path fill="#000000" opacity="1" d="M150.54 26.56L159.50-15.71L171.68-15.71L170.61-10.47Q173.50-13.03 175.31-14.10L175.31-14.10Q178.12-15.71 180.80-15.71L180.80-15.71Q183.53-15.71 185.18-13.77L185.18-13.77Q185.92-12.91 186.29-11.77Q186.67-10.64 186.67-9.36L186.67-9.36Q186.67-8.20 186.29-7.13Q185.92-6.05 185.18-5.19L185.18-5.19Q184.35-4.28 183.18-3.74Q182.00-3.21 180.56-3.21L180.56-3.21Q179.44-3.21 178.78-3.58Q178.12-3.95 177.75-4.65L177.75-4.65Q177.42-5.35 177.29-6.01L177.29-6.01Q176.92-7.79 176.55-8.37L176.55-8.37Q176.26-8.78 175.64-8.78L175.64-8.78Q173.87-8.78 172.63-8.04Q171.39-7.29 169.49-5.56L169.49-5.56L162.72 26.56L150.54 26.56Z"/></g><g transform="matrix(3.676803323128972 -0.36464881204239374 0.20847232456035225 2.570793502747134 347.0191554203436 316.0126036471612)"  >
<path style="stroke: none; stroke-width: 0; stroke-dasharray: none; stroke-linecap: butt; stroke-dashoffset: 0; stroke-linejoin: miter; stroke-miterlimit: 4; fill: rgb(0,0,0); fill-rule: nonzero; opacity: 1;"  transform=" translate(-49.9821566566983, -49.7)" d="M 92.1 53.1 c -25.6 -11.6 -58.6 -11.6 -84.2 0 c -0.5 0.2 -0.7 0.8 -0.5 1.3 c 0.2 0.5 0.8 0.7 1.3 0.5 c 25.1 -11.4 57.5 -11.4 82.5 0 c 0.1 0.1 0.3 0.1 0.4 0.1 c 0.4 0 0.7 -0.2 0.9 -0.6 C 92.8 53.9 92.6 53.3 92.1 53.1 z" stroke-linecap="round" />
</g>
</svg>